<svg xmlns="http://www.w3.org/2000/svg" xmlns:xlink="http://www.w3.org/1999/xlink" width="878.1" height="373.28" viewBox="0 0 878.1 373.28"><defs><style>.cls-1{fill:none;stroke:#002868;stroke-miterlimit:10;stroke-width:6px;}.cls-2{clip-path:url(#clip-path);}.cls-3{fill:#002868;}.cls-4{fill:#fefefe;}.cls-5{fill:#be0a30;}.cls-6{fill:#fed600;}</style><clipPath id="clip-path"><path class="cls-1" d="M12.91,206.56S122.24,133.21,343,113.14c6.23-2.07,9.36-7.72,23.18-30.1,14.53-23.53,33.91-52.59,56.74-72,.47-.39,7.6,26.07,22.84,47.75s38.59,38.58,38.06,39.44c-3.16,5.17-24.22,12.46-24.91,12.46-12.63,0,0,0,30.79,10,19.57,6.38,179.92,45,216.6,56.75C713.9,174.73,830.85,68.16,869.6,70.93c-7.61,10.38-66.43,78.2-92,135.63-.69,5.54,9.69,24.22,96.19,121.1-3.46,2.77-39.44,6.92-161.23-91.34-11.77-6.92-22.49-9.34-37.72-4.5-20.07,4.84-22.49,5.88-22.49,5.88s.69,17.3,6.23,31.83c-6.23,2.77-24.22-1.38-51.9-22.14-18,5.54-84.42,20.71-82.35,20.76,26.3.69,36.77.67,41.52,17.3,7.61,19.38,18,42.9,18,42.9s3.46,10.38-31.83-9.68-74-42.22-74-42.22-112.1,11.08-194.45,1.39c6.23,8.3,27.68,45,11.07,42.9-16.61-2.77-74-38.75-81.66-48.44-31.83-2.07-117.64-15.22-179.22-25.6-3.46-3.46-1.39-9.69,13.84-12.46C26.05,225.94,5.29,221.79,12.91,206.56Z"/></clipPath></defs><title>bonefish-logo-main_1</title><g id="Layer_2" data-name="Layer 2"><g id="Layer_4" data-name="Layer 4"><g class="cls-2"><path class="cls-3" d="M.49,0H876.37c0,22.61,0,132.5,0,155.12,0,1.8-.5,2.11-2.17,2.1-35.2-.05-356.82,0-392,0-4.46,0-8.91,0-13.37,0l-.88-1.29c-15.76-24.15-38-35.49-66.79-33.26-15.46,1.2-28.86,7.55-40.35,18a75.79,75.79,0,0,0-13.4,16.61c-.79,0-1.57-.06-2.36-.06-22.55,0-319.9,0-342.45,0-1.66,0-2.18-.29-2.17-2.1C.52,132.51.49,22.61.49,0Z"/><path class="cls-4" d="M468.85,157.22c4.46,0,8.91,0,13.37,0,35.2,0,356.82,0,392,0,1.67,0,2.18-.3,2.17-2.1-.07-22.62,0-132.51,0-155.12.84.16.36.81.36,1.18,0,5.64,0,11.27,0,16.91,0,63.39,0,290,0,353.39,0,1.47-.34,1.8-1.81,1.8-104,0-769.16,0-873.12,0-1.47,0-1.81-.33-1.81-1.8C.11,302.65.1,70.6.12,1.77.12,1.19-.33.44.49,0c0,22.61,0,132.51,0,155.12,0,1.81.51,2.11,2.17,2.1,22.55-.05,319.9,0,342.45,0,.79,0,1.57,0,2.36.06-.17.35-.32.71-.51,1.06a69.58,69.58,0,0,0-7.18,48.18,75.32,75.32,0,0,0,7.7,20.43c-.72,0-1.44.07-2.16.07-22.61,0-320,0-342.64,0-1.64,0-2.2.25-2.2,2.09.08,22,.07,119.86,0,141.82,0,1.62.37,2,2,2,103.57,0,768.36,0,871.92,0,1.63,0,2-.36,2-2-.07-22-.07-119.86,0-141.82,0-1.81-.52-2.1-2.18-2.1-29.62,0-345.67,0-375.3,0q-15,0-30.08,0c1.16-2.41,2.28-4.84,3.51-7.21.6-1.16.36-1.62-.87-2.11-10.31-4.1-20.59-8.28-30.88-12.43a35.94,35.94,0,0,0,0-26.25q15.33-6.19,30.66-12.38c1.07-.43,1.86-.73,1.09-2.17C471.1,162.07,470,159.63,468.85,157.22Z"/><path class="cls-5" d="M468.85,157.22c1.16,2.41,2.25,4.85,3.52,7.19.77,1.44,0,1.74-1.09,2.17q-15.34,6.16-30.66,12.38c-.31-.65-.6-1.31-.93-2-5.84-11.4-15.07-18.23-27.8-19.63-22.83-2.49-41.37,16.87-38.32,39.69s27.87,36.45,48.71,27a35.52,35.52,0,0,0,18.33-18.83c10.29,4.15,20.57,8.33,30.88,12.43,1.23.49,1.47,1,.87,2.11-1.23,2.37-2.35,4.8-3.51,7.21-.3.43-.61.85-.89,1.29-12.39,19.55-30,30.92-53.07,33.28-20.29,2.08-38.12-4.1-53.45-17.49a73.06,73.06,0,0,1-14-17.12,75.32,75.32,0,0,1-7.7-20.43,69.58,69.58,0,0,1,7.18-48.18c.19-.35.34-.71.51-1.06a75.79,75.79,0,0,1,13.4-16.61c11.49-10.42,24.89-16.77,40.35-18,28.78-2.23,51,9.11,66.79,33.26Z"/><path class="cls-3" d="M347.44,226.92a73.06,73.06,0,0,0,14,17.12c15.33,13.39,33.16,19.57,53.45,17.49,23-2.36,40.68-13.73,53.07-33.28.28-.44.59-.86.89-1.29q15,0,30.08,0c29.63,0,345.68,0,375.3,0,1.66,0,2.19.29,2.18,2.1-.07,22-.07,119.86,0,141.82,0,1.65-.4,2-2,2-103.56,0-768.35,0-871.92,0-1.64,0-2-.4-2-2,.06-22,.07-119.86,0-141.82,0-1.84.56-2.09,2.2-2.09,22.61.06,320,0,342.64,0C346,227,346.72,227,347.44,226.92Z"/><path class="cls-6" d="M440.61,205.21A35.52,35.52,0,0,1,422.28,224c-20.84,9.48-45.68-4.27-48.71-27s15.49-42.18,38.32-39.69c12.73,1.4,22,8.23,27.8,19.63.33.64.62,1.3.93,2A35.94,35.94,0,0,1,440.61,205.21Z"/></g><path class="cls-1" d="M12.91,206.56S122.24,133.21,343,113.14c6.23-2.07,9.36-7.72,23.18-30.1,14.53-23.53,33.91-52.59,56.74-72,.47-.39,7.6,26.07,22.84,47.75s38.59,38.58,38.06,39.44c-3.16,5.17-24.22,12.46-24.91,12.46-12.63,0,0,0,30.79,10,19.57,6.38,179.92,45,216.6,56.75C713.9,174.73,830.85,68.16,869.6,70.93c-7.61,10.38-66.43,78.2-92,135.63-.69,5.54,9.69,24.22,96.19,121.1-3.46,2.77-39.44,6.92-161.23-91.34-11.77-6.92-22.49-9.34-37.72-4.5-20.07,4.84-22.49,5.88-22.49,5.88s.69,17.3,6.23,31.83c-6.23,2.77-24.22-1.38-51.9-22.14-18,5.54-84.42,20.71-82.35,20.76,26.3.69,36.77.67,41.52,17.3,7.61,19.38,18,42.9,18,42.9s3.46,10.38-31.83-9.68-74-42.22-74-42.22-112.1,11.08-194.45,1.39c6.23,8.3,27.68,45,11.07,42.9-16.61-2.77-74-38.75-81.66-48.44-31.83-2.07-117.64-15.22-179.22-25.6-3.46-3.46-1.39-9.69,13.84-12.46C26.05,225.94,5.29,221.79,12.91,206.56Z"/><path class="cls-5" d="M124.05,174.74a41.14,41.14,0,0,1,7.8-.72c3.3,0,6.78.54,9.12,2.82a8.45,8.45,0,0,1,2.46,6.41,10.93,10.93,0,0,1-7.74,10.26v.24c4,1.38,5.34,5.16,5.34,8.64a11.77,11.77,0,0,1-4.32,8.88c-2.88,2.34-7,3.54-12.66,3.54a35.49,35.49,0,0,1-7.5-.54Zm.6,34.07a9.09,9.09,0,0,0,1.86.12,6.87,6.87,0,0,0,7.14-7.26c0-3.42-1.74-5.64-5.16-5.64h-1.32Zm3.6-18.3h1.08c4.32,0,6.84-2.7,6.84-6.59,0-2.11-1-4.38-3.9-4.38a7.18,7.18,0,0,0-2,.18Z"/><path class="cls-5" d="M171.87,195.07c0,9.24-4.92,20-13.86,20-7.38,0-9-5.82-9-10.14,0-9.9,5.46-20.16,14.34-20.16C170.79,184.81,171.87,191,171.87,195.07Zm-15.42,9.54c0,2.16.06,4.8,2.4,4.8,3.6,0,5.64-10,5.64-15.24,0-2-.54-3.66-2.34-3.66C158.91,190.51,156.39,199.57,156.45,204.61Z"/><path class="cls-5" d="M177,214.63l3.78-19.8c.66-3.42,1.14-6.78,1.56-9.54h6.42l-.3,3.78h.12a9.63,9.63,0,0,1,7.92-4.26c4.14,0,5.7,2.88,5.7,6.42a27.91,27.91,0,0,1-.72,5.58l-3.36,17.82h-7.5l3.48-18.24a17.1,17.1,0,0,0,.36-3.12c0-1.38-.6-2.34-1.86-2.34-1.74,0-4.08,2.58-5.16,8.16l-2.94,15.54Z"/><path class="cls-5" d="M227.49,213.37A20.66,20.66,0,0,1,219,215c-7.2,0-10-4.74-10-11,0-8.52,4.74-19.14,14.1-19.14,5.34,0,7.74,4,7.8,8,0,8-6.48,11-14.64,10.8A6.2,6.2,0,0,0,217,207a4.48,4.48,0,0,0,4.08,2.1,12.77,12.77,0,0,0,5.94-1.44Zm-5.28-22.56c-2.28,0-4.32,2.94-5.16,7.14,4,.18,7.26-1.38,7.26-4.44C224.31,191.83,223.65,190.81,222.21,190.81Z"/><path class="cls-5" d="M236.19,214.63l4.62-24.06h-4l1-5.28h4l.24-1.44c.78-4.19,4.08-11.21,14.22-11.21a17.76,17.76,0,0,1,7,1.2l-1.79,5.76a14.85,14.85,0,0,0-5.46-1c-4.38,0-6.06,2.64-6.54,5.63l-.18,1h14.16l-5.58,29.34h-7.5L255,190.57h-6.72l-4.56,24.06Z"/><path class="cls-5" d="M268.53,208.21a8.75,8.75,0,0,0,4.74,1.2,3.16,3.16,0,0,0,3.36-3.3c0-1.62-.78-2.76-2.82-4.38a9.22,9.22,0,0,1-3.72-7.14c0-5.4,4.2-9.78,10.86-9.78a11.69,11.69,0,0,1,5.52,1.09l-1.63,5.45a7.7,7.7,0,0,0-3.48-.9c-2.39,0-3.89,1.26-3.89,3.24,0,1.5.83,2.4,2.22,3.54,3.3,2.52,4.37,5.4,4.37,7.68,0,6.48-4.49,10.08-11.21,10.08a11.9,11.9,0,0,1-6.12-1.5Z"/><path class="cls-5" d="M290.66,214.63l7.92-41.51h7.5L303,188.9h.12c1.8-2.35,4.26-4.09,7.38-4.09,3.72,0,5.34,2.65,5.34,6.42a32,32,0,0,1-.72,5.76l-3.36,17.64h-7.5L307.7,197a28.76,28.76,0,0,0,.36-3.72c0-1.44-.54-2.34-1.8-2.34-1.74,0-4,2.52-4.86,7l-3.24,16.74Z"/><path class="cls-5" d="M485.75,207a11.59,11.59,0,0,0,5.58,1.38c3.42.12,5.82-2,5.82-5.16,0-2.7-1.5-4.26-4-6.78-3.18-3-4.8-6.24-4.8-9.78,0-7.49,5.28-12.77,13.2-12.77a11.92,11.92,0,0,1,6.06,1.26l-2,6.48a8.59,8.59,0,0,0-4.38-1.08,5,5,0,0,0-5.4,5.15c0,1.92.78,3.42,4,6.3s4.86,6.48,4.86,9.72c0,8.4-5.58,13.32-13.26,13.32-4,0-6.6-.9-7.56-1.5Z"/><path class="cls-5" d="M535,195.07c0,9.24-4.92,20-13.86,20-7.38,0-9-5.82-9-10.14,0-9.9,5.46-20.16,14.34-20.16C533.93,184.81,535,191,535,195.07Zm-15.42,9.54c0,2.16.06,4.8,2.4,4.8,3.6,0,5.64-10,5.64-15.24,0-2-.54-3.66-2.34-3.66C522.05,190.51,519.53,199.57,519.59,204.61Z"/><path class="cls-5" d="M541.25,214.63l4.62-24.06H542l1-5.28h4l.24-1.19a15.36,15.36,0,0,1,4.44-8.76,10.85,10.85,0,0,1,7.44-2.7,13.73,13.73,0,0,1,4.26.6L561.59,179a6.85,6.85,0,0,0-2.34-.36c-2.7,0-4.26,2.82-4.74,5.4l-.24,1.25H560l-1,5.28h-5.58l-4.62,24.06Z"/><path class="cls-5" d="M577,177.38l-1.5,7.91H581l-1,5.28h-5.58l-2.58,13.62a15,15,0,0,0-.24,2.46c0,1.8.9,2.46,2.28,2.46a12.71,12.71,0,0,0,2-.12l-.9,5.64a18.81,18.81,0,0,1-4.5.48c-4.5,0-6.72-2.52-6.72-6.48a23,23,0,0,1,.54-4.38L567,190.57h-3.42l1-5.28H568l1.2-6Z"/><path class="cls-5" d="M594.53,185.29l-.72,13.08c-.3,4-.42,5.94-.84,8.94h.18A81.84,81.84,0,0,1,596,199l5.7-13.68h5.76l.12,13.5a59.77,59.77,0,0,1-.42,8.52h.18c.72-2.94,1.38-5.1,2.7-9.18l4.5-12.84h7.31L609,214.63h-6.54L602,203.89a88.27,88.27,0,0,1,.42-9.12h-.18a89.28,89.28,0,0,1-3.06,9.12l-4.56,10.74h-6.6l-1.32-29.34Z"/><path class="cls-5" d="M637.85,214.63c.06-1.56.18-3.18.24-4.92h-.18c-2.34,3.9-5.16,5.4-7.5,5.4-4.26,0-6.36-3.66-6.36-8.82,0-8.88,4.44-21.48,17-21.48a22.38,22.38,0,0,1,7.68,1.21l-3.24,16.31a67.73,67.73,0,0,0-1.2,12.3Zm2.7-24.06a8.29,8.29,0,0,0-1.56-.18c-4.92,0-7.56,9.78-7.62,14.1,0,2.58.36,4.44,2.22,4.44,2,0,4-3.36,5-8.7Z"/><path class="cls-5" d="M652.79,214.63l3.78-19.92c.66-3.36,1.08-6.71,1.5-9.42h6.42c-.12,1.5-.24,3.06-.42,4.86h.18c2.16-3.71,4.8-5.34,7.26-5.34a3.43,3.43,0,0,1,1.2.13l-1.38,7.49c-.3,0-.84-.06-1.26-.06-3.24,0-6.3,3.72-7.2,8.7l-2.58,13.56Z"/><path class="cls-5" d="M693.89,213.37a20.66,20.66,0,0,1-8.46,1.62c-7.2,0-10-4.74-10-11,0-8.52,4.74-19.14,14.1-19.14,5.34,0,7.74,4,7.8,8,0,8-6.48,11-14.64,10.8a6.2,6.2,0,0,0,.66,3.42,4.48,4.48,0,0,0,4.08,2.1,12.77,12.77,0,0,0,5.94-1.44Zm-5.28-22.56c-2.28,0-4.32,2.94-5.16,7.14,4,.18,7.26-1.38,7.26-4.44C690.71,191.83,690.05,190.81,688.61,190.81Z"/></g></g></svg>