<svg xmlns="http://www.w3.org/2000/svg" xmlns:xlink="http://www.w3.org/1999/xlink" width="878.1" height="373.28" viewBox="0 0 878.1 373.28"><defs><style>.cls-1{fill:none;stroke:#002868;stroke-miterlimit:10;stroke-width:6px;}.cls-2{clip-path:url(#clip-path);}.cls-3{fill:#002868;}.cls-4{fill:#fefefe;}.cls-5{fill:#be0a30;}.cls-6{fill:#fed600;}</style><clipPath id="clip-path"><path class="cls-1" d="M12.91,206.56S122.24,133.21,343,113.14c6.23-2.07,9.36-7.72,23.18-30.1,14.53-23.53,33.91-52.59,56.74-72,.47-.39,7.6,26.07,22.84,47.75s38.59,38.58,38.06,39.44c-3.16,5.17-24.22,12.46-24.91,12.46-12.63,0,0,0,30.79,10,19.57,6.38,179.92,45,216.6,56.75C713.9,174.73,830.85,68.16,869.6,70.93c-7.61,10.38-66.43,78.2-92,135.63-.69,5.54,9.69,24.22,96.19,121.1-3.46,2.77-39.44,6.92-161.23-91.34-11.77-6.92-22.49-9.34-37.72-4.5-20.07,4.84-22.49,5.88-22.49,5.88s.69,17.3,6.23,31.83c-6.23,2.77-24.22-1.38-51.9-22.14-18,5.54-84.42,20.71-82.35,20.76,26.3.69,36.77.67,41.52,17.3,7.61,19.38,18,42.9,18,42.9s3.46,10.38-31.83-9.68-74-42.22-74-42.22-112.1,11.08-194.45,1.39c6.23,8.3,27.68,45,11.07,42.9-16.61-2.77-74-38.75-81.66-48.44-31.83-2.07-117.64-15.22-179.22-25.6-3.46-3.46-1.39-9.69,13.84-12.46C26.05,225.94,5.29,221.79,12.91,206.56Z"/></clipPath></defs><title>bonefish-logo-no-text_2</title><g id="Layer_2" data-name="Layer 2"><g id="Layer_4" data-name="Layer 4"><g class="cls-2"><path class="cls-3" d="M.49,0H876.37c0,22.61,0,132.5,0,155.12,0,1.8-.5,2.11-2.17,2.1-35.2-.05-356.82,0-392,0-4.46,0-8.91,0-13.37,0l-.88-1.29c-15.76-24.15-38-35.49-66.79-33.26-15.46,1.2-28.86,7.55-40.35,18a75.79,75.79,0,0,0-13.4,16.61c-.79,0-1.57-.06-2.36-.06-22.55,0-319.9,0-342.45,0-1.66,0-2.18-.29-2.17-2.1C.52,132.51.49,22.61.49,0Z"/><path class="cls-4" d="M468.85,157.22c4.46,0,8.91,0,13.37,0,35.2,0,356.82,0,392,0,1.67,0,2.18-.3,2.17-2.1-.07-22.62,0-132.51,0-155.12.84.16.36.81.36,1.18,0,5.64,0,11.27,0,16.91,0,63.39,0,290,0,353.39,0,1.47-.34,1.8-1.81,1.8-104,0-769.16,0-873.12,0-1.47,0-1.81-.33-1.81-1.8C.11,302.65.1,70.6.12,1.77.12,1.19-.33.44.49,0c0,22.61,0,132.51,0,155.12,0,1.81.51,2.11,2.17,2.1,22.55-.05,319.9,0,342.45,0,.79,0,1.57,0,2.36.06-.17.35-.32.71-.51,1.06a69.58,69.58,0,0,0-7.18,48.18,75.32,75.32,0,0,0,7.7,20.43c-.72,0-1.44.07-2.16.07-22.61,0-320,0-342.64,0-1.64,0-2.2.25-2.2,2.09.08,22,.07,119.86,0,141.82,0,1.62.37,2,2,2,103.57,0,768.36,0,871.92,0,1.63,0,2-.36,2-2-.07-22-.07-119.86,0-141.82,0-1.81-.52-2.1-2.18-2.1-29.62,0-345.67,0-375.3,0q-15,0-30.08,0c1.16-2.41,2.28-4.84,3.51-7.21.6-1.16.36-1.62-.87-2.11-10.31-4.1-20.59-8.28-30.88-12.43a35.94,35.94,0,0,0,0-26.25q15.33-6.19,30.66-12.38c1.07-.43,1.86-.73,1.09-2.17C471.1,162.07,470,159.63,468.85,157.22Z"/><path class="cls-5" d="M468.85,157.22c1.16,2.41,2.25,4.85,3.52,7.19.77,1.44,0,1.74-1.09,2.17q-15.34,6.16-30.66,12.38c-.31-.65-.6-1.31-.93-2-5.84-11.4-15.07-18.23-27.8-19.63-22.83-2.49-41.37,16.87-38.32,39.69s27.87,36.45,48.71,27a35.52,35.52,0,0,0,18.33-18.83c10.29,4.15,20.57,8.33,30.88,12.43,1.23.49,1.47,1,.87,2.11-1.23,2.37-2.35,4.8-3.51,7.21-.3.43-.61.85-.89,1.29-12.39,19.55-30,30.92-53.07,33.28-20.29,2.08-38.12-4.1-53.45-17.49a73.06,73.06,0,0,1-14-17.12,75.32,75.32,0,0,1-7.7-20.43,69.58,69.58,0,0,1,7.18-48.18c.19-.35.34-.71.51-1.06a75.79,75.79,0,0,1,13.4-16.61c11.49-10.42,24.89-16.77,40.35-18,28.78-2.23,51,9.11,66.79,33.26Z"/><path class="cls-3" d="M347.44,226.92a73.06,73.06,0,0,0,14,17.12c15.33,13.39,33.16,19.57,53.45,17.49,23-2.36,40.68-13.73,53.07-33.28.28-.44.59-.86.89-1.29q15,0,30.08,0c29.63,0,345.68,0,375.3,0,1.66,0,2.19.29,2.18,2.1-.07,22-.07,119.86,0,141.82,0,1.65-.4,2-2,2-103.56,0-768.35,0-871.92,0-1.64,0-2-.4-2-2,.06-22,.07-119.86,0-141.82,0-1.84.56-2.09,2.2-2.09,22.61.06,320,0,342.64,0C346,227,346.72,227,347.44,226.92Z"/><path class="cls-6" d="M440.61,205.21A35.52,35.52,0,0,1,422.28,224c-20.84,9.48-45.68-4.27-48.71-27s15.49-42.18,38.32-39.69c12.73,1.4,22,8.23,27.8,19.63.33.64.62,1.3.93,2A35.94,35.94,0,0,1,440.61,205.21Z"/></g><path class="cls-1" d="M12.91,206.56S122.24,133.21,343,113.14c6.23-2.07,9.36-7.72,23.18-30.1,14.53-23.53,33.91-52.59,56.74-72,.47-.39,7.6,26.07,22.84,47.75s38.59,38.58,38.06,39.44c-3.16,5.17-24.22,12.46-24.91,12.46-12.63,0,0,0,30.79,10,19.57,6.38,179.92,45,216.6,56.75C713.9,174.73,830.85,68.16,869.6,70.93c-7.61,10.38-66.43,78.2-92,135.63-.69,5.54,9.69,24.22,96.19,121.1-3.46,2.77-39.44,6.92-161.23-91.34-11.77-6.92-22.49-9.34-37.72-4.5-20.07,4.84-22.49,5.88-22.49,5.88s.69,17.3,6.23,31.83c-6.23,2.77-24.22-1.38-51.9-22.14-18,5.54-84.42,20.71-82.35,20.76,26.3.69,36.77.67,41.52,17.3,7.61,19.38,18,42.9,18,42.9s3.46,10.38-31.83-9.68-74-42.22-74-42.22-112.1,11.08-194.45,1.39c6.23,8.3,27.68,45,11.07,42.9-16.61-2.77-74-38.75-81.66-48.44-31.83-2.07-117.64-15.22-179.22-25.6-3.46-3.46-1.39-9.69,13.84-12.46C26.05,225.94,5.29,221.79,12.91,206.56Z"/></g></g></svg>